<?xml version="1.0" encoding="UTF-8"?>
<!-- Created with Inkscape (http://www.inkscape.org/) -->
<svg width="500" height="500" version="1.1" viewBox="0 0 132.29 132.29" xmlns="http://www.w3.org/2000/svg" xmlns:cc="http://creativecommons.org/ns#" xmlns:dc="http://purl.org/dc/elements/1.1/" xmlns:rdf="http://www.w3.org/1999/02/22-rdf-syntax-ns#">
 <metadata>
  <rdf:RDF>
   <cc:Work rdf:about="">
    <dc:format>image/svg+xml</dc:format>
    <dc:type rdf:resource="http://purl.org/dc/dcmitype/StillImage"/>
    <dc:title/>
   </cc:Work>
  </rdf:RDF>
 </metadata>
 <g transform="translate(0 -164.71)">
  <path transform="matrix(.26458 0 0 .26458 0 164.71)" d="m236.37 17.904-129.5 79.996c-11.748 7.2568-15.389 22.663-8.1318 34.411 7.2568 11.748 22.663 15.389 34.411 8.1318l91.359-56.441v100.98h-85.807c-13.97-0.23307-25.42 11.027-25.42 24.999s11.45 25.232 25.42 24.999h85.807v37.08h-85.807c-13.873-0.0915-25.167 11.129-25.167 25.002 0 13.873 11.295 25.093 25.167 25.002h85.807v138.74c5e-3 19.537 21.411 31.52 38.068 21.311l130.51-79.998c11.957-7.1361 15.78-22.665 8.5026-34.537-7.2775-11.871-22.851-15.51-34.635-8.092l-92.443 56.67v-94.09h86.818c13.873 0.0915 25.167-11.129 25.167-25.002 0-13.873-11.295-25.093-25.167-25.002h-86.818v-37.08h86.818c13.97 0.23307 25.42-11.027 25.42-24.999s-11.45-25.232-25.42-24.999h-86.818v-145.81c-4.3232-20.057-21.843-31.111-38.143-21.266z" color="#000000" color-rendering="auto" dominant-baseline="auto" fill="#000000" image-rendering="auto" shape-rendering="auto" solid-color="#000000" style="font-feature-settings:normal;font-variant-alternates:normal;font-variant-caps:normal;font-variant-ligatures:normal;font-variant-numeric:normal;font-variant-position:normal;isolation:auto;mix-blend-mode:normal;shape-padding:0;text-decoration-color:#000000;text-decoration-line:none;text-decoration-style:solid;text-indent:0;text-orientation:mixed;text-transform:none;white-space:normal"/>
 </g>
</svg>
