<?xml version="1.0" encoding="UTF-8"?>
<!-- Created with Inkscape (http://www.inkscape.org/) -->
<svg width="500" height="500" version="1.1" viewBox="0 0 132.29 132.29" xmlns="http://www.w3.org/2000/svg" xmlns:cc="http://creativecommons.org/ns#" xmlns:dc="http://purl.org/dc/elements/1.1/" xmlns:rdf="http://www.w3.org/1999/02/22-rdf-syntax-ns#">
 <metadata>
  <rdf:RDF>
   <cc:Work rdf:about="">
    <dc:format>image/svg+xml</dc:format>
    <dc:type rdf:resource="http://purl.org/dc/dcmitype/StillImage"/>
    <dc:title/>
   </cc:Work>
  </rdf:RDF>
 </metadata>
 <g transform="translate(0 -164.71)">
  <path transform="matrix(.26458 0 0 .26458 0 164.71)" d="m379.64 73.822a25.002 25.002 0 0 0-24.625 25.348v127.33h-92.244l-123.83-143.65a25.002 25.002 0 0 0-43.936 16.32v301.63a25.002 25.002 0 1 0 49.996 0v-124.3h80.014v124.3a25.002 25.002 0 1 0 49.996 0v-83.529l86.074 99.85a25.002 25.002 0 0 0 43.936-16.32v-301.63a25.002 25.002 0 0 0-25.379-25.348zm-234.64 92.635 51.762 60.045h-51.762v-60.045zm160.88 110.05h49.139v57.004l-49.139-57.004z" color="#000000" color-rendering="auto" dominant-baseline="auto" image-rendering="auto" shape-rendering="auto" solid-color="#000000" style="font-feature-settings:normal;font-variant-alternates:normal;font-variant-caps:normal;font-variant-ligatures:normal;font-variant-numeric:normal;font-variant-position:normal;isolation:auto;mix-blend-mode:normal;shape-padding:0;text-decoration-color:#000000;text-decoration-line:none;text-decoration-style:solid;text-indent:0;text-orientation:mixed;text-transform:none;white-space:normal"/>
 </g>
</svg>
