<?xml version="1.0" encoding="UTF-8"?>
<!-- Created with Inkscape (http://www.inkscape.org/) -->
<svg width="500" height="500" version="1.1" viewBox="0 0 132.29 132.29" xmlns="http://www.w3.org/2000/svg" xmlns:cc="http://creativecommons.org/ns#" xmlns:dc="http://purl.org/dc/elements/1.1/" xmlns:rdf="http://www.w3.org/1999/02/22-rdf-syntax-ns#">
 <metadata>
  <rdf:RDF>
   <cc:Work rdf:about="">
    <dc:format>image/svg+xml</dc:format>
    <dc:type rdf:resource="http://purl.org/dc/dcmitype/StillImage"/>
    <dc:title/>
   </cc:Work>
  </rdf:RDF>
 </metadata>
 <g transform="translate(0 -164.71)">
  <g transform="translate(24.589 8.0073)">
   <path transform="matrix(.26458 0 0 .26458 -24.589 156.7)" d="m191.22 14.016c-13.58 0.30908-24.429 11.404-24.434 24.988v421.63c-0.0915 13.873 11.129 25.167 25.002 25.167 13.873 0 25.093-11.295 25.002-25.167v-155.37h176.15c13.97 0.2329 25.419-11.027 25.419-24.999 0-13.972-11.45-25.232-25.419-24.999h-176.15v-156.56l73.627 72.469c9.791 9.974 25.857 9.9847 35.661 0.0237 9.8043-9.961 9.5389-26.025-0.58913-35.657l-116.16-114.35c-4.8177-4.7412-11.35-7.3299-18.107-7.1758z" color="#000000" color-rendering="auto" dominant-baseline="auto" image-rendering="auto" shape-rendering="auto" solid-color="#000000" style="font-feature-settings:normal;font-variant-alternates:normal;font-variant-caps:normal;font-variant-ligatures:normal;font-variant-numeric:normal;font-variant-position:normal;isolation:auto;mix-blend-mode:normal;shape-padding:0;text-decoration-color:#000000;text-decoration-line:none;text-decoration-style:solid;text-indent:0;text-orientation:mixed;text-transform:none;white-space:normal"/>
  </g>
  <g transform="translate(-15.535 -.04756)"></g>
 </g>
</svg>
