<?xml version="1.0" encoding="UTF-8"?>
<!-- Created with Inkscape (http://www.inkscape.org/) -->
<svg width="500" height="500" version="1.1" viewBox="0 0 132.29 132.29" xmlns="http://www.w3.org/2000/svg" xmlns:cc="http://creativecommons.org/ns#" xmlns:dc="http://purl.org/dc/elements/1.1/" xmlns:rdf="http://www.w3.org/1999/02/22-rdf-syntax-ns#">
 <metadata>
  <rdf:RDF>
   <cc:Work rdf:about="">
    <dc:format>image/svg+xml</dc:format>
    <dc:type rdf:resource="http://purl.org/dc/dcmitype/StillImage"/>
    <dc:title/>
   </cc:Work>
  </rdf:RDF>
 </metadata>
 <g transform="translate(0 -164.71)">
  <g transform="rotate(180 66.146 230.85)"></g>
  <g transform="translate(-17.199 2.5e-6)">
   <path transform="matrix(.26458 0 0 .26458 17.199 164.71)" d="m249.98 34.188a25.002 25.002 0 0 0-24.994 24.996v165.82h-79.994a25.002 25.002 0 1 0 0 49.998h79.994v140.82h-125a25.002 25.002 0 1 0 0 49.998h149.99a25.002 25.002 0 0 0 25.002-25.002v-165.81h80.018a25.002 25.002 0 1 0 0-49.998h-80.018v-140.82h125.02a25.002 25.002 0 1 0 0-49.998h-150.02z" color="#000000" color-rendering="auto" dominant-baseline="auto" image-rendering="auto" shape-rendering="auto" solid-color="#000000" style="font-feature-settings:normal;font-variant-alternates:normal;font-variant-caps:normal;font-variant-ligatures:normal;font-variant-numeric:normal;font-variant-position:normal;isolation:auto;mix-blend-mode:normal;shape-padding:0;text-decoration-color:#000000;text-decoration-line:none;text-decoration-style:solid;text-indent:0;text-orientation:mixed;text-transform:none;white-space:normal"/>
  </g>
  <g transform="translate(-15.538 3.5572)"></g>
 </g>
</svg>
